<svg width="128" height="125" viewBox="0 0 128 125" fill="none" xmlns="http://www.w3.org/2000/svg">
<path d="M22.6453 0H105.234C117.755 0 127.879 10.1238 127.879 22.6453V102.037C127.879 114.558 117.755 124.682 105.234 124.682H22.6453C10.1238 124.682 0 114.558 0 102.037V22.6453C0 10.1238 10.1238 0 22.6453 0Z" fill="#330000"/>
<path d="M61.8083 74.5961H41.987L37.9375 87.1176C37.8309 87.5971 37.4047 87.9168 36.9251 87.8635H26.9079C26.3218 87.8635 26.162 87.5438 26.3218 86.9044L43.4789 37.5112C43.6388 36.9783 43.7986 36.3922 44.0118 35.7528C44.2249 34.6339 44.3315 33.4616 44.3315 32.2894C44.2782 32.023 44.4913 31.7566 44.7577 31.7033H58.558C58.9843 31.7033 59.1974 31.8632 59.2507 32.1296L78.699 87.011C78.8588 87.5971 78.699 87.8635 78.1661 87.8635H67.03C66.657 87.9168 66.284 87.6504 66.1775 87.2774L61.8083 74.5961ZM45.0774 63.7796H58.6113C58.2916 62.6607 57.8653 61.3286 57.3858 59.9433C56.9062 58.5046 56.4267 56.9594 55.9471 55.3609C55.4143 53.7092 54.9348 52.1107 54.4019 50.4589C53.8691 48.8071 53.3896 47.2619 52.9633 45.7167C52.537 44.2248 52.164 42.8394 51.7911 41.5607H51.6845C51.205 43.8518 50.6188 46.143 49.8729 48.4342C49.0736 50.9917 48.2744 53.6559 47.4219 56.32C46.6759 59.0375 45.8767 61.5418 45.0774 63.7796ZM90.5811 41.0278C88.8227 41.0811 87.1177 40.3884 85.8389 39.1629C84.6134 37.8309 83.974 36.0725 84.0272 34.2609C83.974 32.4493 84.6666 30.7442 85.9454 29.5187C87.2242 28.2932 88.9293 27.6538 90.6876 27.6538C92.7657 27.6538 94.3641 28.2932 95.5364 29.5187C96.7086 30.7975 97.348 32.5026 97.2947 34.2609C97.348 36.0725 96.7086 37.8309 95.4298 39.1629C94.2043 40.4417 92.3927 41.1344 90.5811 41.0278ZM84.6134 87.2774V46.2496C84.6134 45.7167 84.8265 45.5036 85.306 45.5036H95.8561C96.3356 45.5036 96.5487 45.77 96.5487 46.2496V87.2774C96.5487 87.8635 96.3356 88.1299 95.8561 88.1299H85.4126C84.8798 88.1299 84.6134 87.8103 84.6134 87.2774Z" fill="#FF9A00"/>
</svg>
