<svg width="111" height="125" viewBox="0 0 111 125" fill="none" xmlns="http://www.w3.org/2000/svg">
<rect x="12.7951" y="14.6918" width="81.7978" height="91.3277" fill="white"/>
<rect x="12.7951" y="14.6918" width="81.7978" height="91.3277" fill="white"/>
<path d="M110.476 0L100.117 112.201L55.2373 124.285L10.3566 112.201L0 0H110.476ZM89.6026 22.8143H55.1969H20.1817L21.8563 36.3636H55.1969H57.0697L55.1969 37.1431L23.0748 50.5217L24.1401 63.7658L55.1969 63.8665L71.8424 63.9192L70.7768 81.5785L55.1966 85.965V85.9511L55.0689 85.9866L40.0224 82.1882L39.1093 71.2263H39.0595H25.103H25.0539L26.8807 92.3882L55.1971 100.762V100.747L55.2482 100.762L83.4129 92.5407L87.0663 50.5217H55.1971H55.1186L55.1971 50.4876L88.2337 36.3636L89.6026 22.8143Z" fill="#33AADD"/>
<path d="M110.476 0L100.117 112.201L55.2373 124.285L10.3566 112.201L0 0H110.476ZM89.6026 22.8143H55.1969H20.1817L21.8563 36.3636H55.1969H57.0697L55.1969 37.1431L23.0748 50.5217L24.1401 63.7658L55.1969 63.8665L71.8424 63.9192L70.7768 81.5785L55.1966 85.965V85.9511L55.0689 85.9866L40.0224 82.1882L39.1093 71.2263H39.0595H25.103H25.0539L26.8807 92.3882L55.1971 100.762V100.747L55.2482 100.762L83.4129 92.5407L87.0663 50.5217H55.1971H55.1186L55.1971 50.4876L88.2337 36.3636L89.6026 22.8143Z" fill="#33AADD"/>
</svg>
