<svg width="125" height="125" viewBox="0 0 125 125" fill="none" xmlns="http://www.w3.org/2000/svg">
<path fill-rule="evenodd" clip-rule="evenodd" d="M62.5607 62.3411C62.5607 50.8646 71.8646 41.5607 83.341 41.5607C94.8175 41.5607 104.121 50.8646 104.121 62.3411C104.121 73.8175 94.8175 83.1214 83.341 83.1214C71.8646 83.1214 62.5607 73.8175 62.5607 62.3411Z" fill="#1ABCFE"/>
<path fill-rule="evenodd" clip-rule="evenodd" d="M21 103.902C21 92.4253 30.3037 83.1214 41.7804 83.1214H62.5607V103.902C62.5607 115.378 53.2568 124.682 41.7804 124.682C30.3037 124.682 21 115.378 21 103.902Z" fill="#0ACF83"/>
<path fill-rule="evenodd" clip-rule="evenodd" d="M62.5607 0V41.5607H83.341C94.8175 41.5607 104.121 32.2568 104.121 20.7804C104.121 9.30368 94.8175 0 83.341 0H62.5607Z" fill="#FF7262"/>
<path fill-rule="evenodd" clip-rule="evenodd" d="M21 20.7804C21 32.2568 30.3037 41.5607 41.7804 41.5607H62.5607V0H41.7804C30.3037 0 21 9.30368 21 20.7804Z" fill="#F24E1E"/>
<path fill-rule="evenodd" clip-rule="evenodd" d="M21 62.3411C21 73.8175 30.3037 83.1214 41.7804 83.1214H62.5607V41.5607H41.7804C30.3037 41.5607 21 50.8646 21 62.3411Z" fill="#A259FF"/>
</svg>
