<svg width="112" height="125" viewBox="0 0 112 125" fill="none" xmlns="http://www.w3.org/2000/svg">
<rect x="15.1286" y="14.6919" width="81.7978" height="91.3277" fill="white"/>
<path fill-rule="evenodd" clip-rule="evenodd" d="M89.7033 37.2855H89.6589H36.1171L37.3975 49.714H88.4292C87.6813 60.6014 85.4184 83.6676 84.5881 94.1635L55.9251 102.232V102.256L55.8617 102.286L27.1797 92.1942L25.2148 68.3568H39.2737L40.2689 81.1767L55.8871 86.9995H55.9251L71.5179 81.4073L73.1216 62.1425H24.5873C24.3527 59.6506 21.3356 27.293 20.8095 24.857H90.9583C90.5653 28.9584 90.166 33.1717 89.7033 37.2855ZM0 0L10.1797 112.776L55.8617 124.285L101.664 112.545L111.857 0H0Z" fill="#F16529"/>
</svg>
