<svg width="125" height="125" viewBox="0 0 125 125" fill="none" xmlns="http://www.w3.org/2000/svg">
<path d="M0 30C0 13.4314 13.4315 0 30 0H94.6821C111.251 0 124.682 13.4315 124.682 30V94.6821C124.682 111.251 111.251 124.682 94.6821 124.682H30C13.4314 124.682 0 111.251 0 94.6821V30Z" fill="#F7DF1E"/>
<path d="M32.7836 104.193L42.3247 98.419C44.1657 101.683 45.8402 104.444 49.8568 104.444C53.7068 104.444 56.1347 102.938 56.1347 97.0801V57.2413H67.8514V97.2457C67.8514 109.381 60.7377 114.905 50.3589 114.905C40.9858 114.905 35.5451 110.051 32.7831 104.192M74.2156 102.938L83.7557 97.4142C86.2673 101.516 89.5315 104.528 95.3058 104.528C100.161 104.528 103.257 102.101 103.257 98.7531C103.257 94.736 100.076 93.3129 94.7199 90.9702L91.7913 89.7136C83.3378 86.1159 77.7305 81.5962 77.7305 72.0551C77.7305 63.2669 84.4259 56.5711 94.8879 56.5711C102.337 56.5711 107.693 59.166 111.543 65.9452L102.42 71.8042C100.41 68.2055 98.2354 66.7829 94.8875 66.7829C91.4558 66.7829 89.2797 68.9589 89.2797 71.8042C89.2797 75.3192 91.4558 76.7428 96.4772 78.9189L99.4062 80.174C109.366 84.4429 114.973 88.7946 114.973 98.586C114.973 109.132 106.688 114.907 95.5566 114.907C84.6767 114.907 77.6463 109.718 74.2151 102.938" fill="black"/>
</svg>
