<svg width="128" height="125" viewBox="0 0 128 125" fill="none" xmlns="http://www.w3.org/2000/svg">
<path d="M22.6453 0H105.234C117.755 0 127.879 10.1238 127.879 22.6453V102.037C127.879 114.558 117.755 124.682 105.234 124.682H22.6453C10.1238 124.682 0 114.558 0 102.037V22.6453C0 10.1238 10.1238 0 22.6453 0Z" fill="#001E36"/>
<path d="M28.7727 87.4373V32.6092C28.7727 32.2362 28.9325 32.0231 29.3055 32.0231C30.2113 32.0231 31.0638 32.0231 32.2893 31.9698C33.5681 31.9165 34.9002 31.9165 36.3389 31.8632C37.7775 31.8099 39.3227 31.8099 40.9745 31.7567C42.6262 31.7034 44.2247 31.7034 45.8232 31.7034C50.1924 31.7034 53.8157 32.2362 56.7995 33.3551C59.4637 34.2609 61.9147 35.7529 63.9394 37.7243C65.6445 39.4294 66.9765 41.5074 67.8291 43.7986C68.6283 46.0365 69.0546 48.3276 69.0546 50.7254C69.0546 55.3077 67.9889 59.0908 65.8576 62.0746C63.7263 65.0585 60.7424 67.2964 57.2791 68.5752C53.6558 69.9072 49.6596 70.3868 45.2904 70.3868C44.0116 70.3868 43.1591 70.3868 42.6262 70.3335C42.0934 70.2802 41.3474 70.2802 40.3351 70.2802V87.384C40.3884 87.757 40.1219 88.0767 39.749 88.13C39.6957 88.13 39.6424 88.13 39.5358 88.13H29.4121C28.9858 88.13 28.7727 87.9169 28.7727 87.4373ZM40.3884 42.3067V60.2097C41.1343 60.263 41.827 60.3163 42.4664 60.3163H45.2904C47.3684 60.3163 49.4465 59.9966 51.4179 59.3572C53.123 58.8777 54.6149 57.8653 55.7871 56.5332C56.9061 55.2011 57.4389 53.3895 57.4389 51.0451C57.4922 49.3933 57.0659 47.7415 56.2134 46.3029C55.3076 44.9175 54.0288 43.8519 52.4836 43.2658C50.5121 42.4665 48.3808 42.1468 46.1962 42.2001C44.8108 42.2001 43.5853 42.2001 42.573 42.2534C41.5073 42.2001 40.7613 42.2534 40.3884 42.3067Z" fill="#31A8FF"/>
<path d="M102.303 56.9595C100.705 56.107 98.9995 55.5208 97.1879 55.1479C95.2165 54.7216 93.245 54.4552 91.2202 54.4552C90.1546 54.4019 89.0356 54.5618 88.0233 54.8282C87.3306 54.988 86.7445 55.361 86.3715 55.8938C86.1051 56.3201 85.9452 56.8529 85.9452 57.3325C85.9452 57.812 86.1584 58.2916 86.4781 58.7178C86.9576 59.3039 87.597 59.7835 88.2897 60.1565C89.5152 60.7959 90.794 61.382 92.0728 61.9148C94.95 62.8739 97.7208 64.206 100.278 65.8045C102.037 66.9234 103.475 68.4153 104.488 70.2269C105.34 71.932 105.766 73.7969 105.713 75.7151C105.766 78.2194 105.021 80.7237 103.635 82.8017C102.143 84.933 100.065 86.5848 97.6675 87.5439C95.0566 88.6628 91.8596 89.249 88.0233 89.249C85.5722 89.249 83.1745 89.0358 80.7768 88.5563C78.9119 88.2366 77.047 87.6505 75.3419 86.8512C74.9689 86.6381 74.7025 86.2651 74.7558 85.8388V76.5676C74.7558 76.4078 74.8091 76.1946 74.9689 76.0881C75.1288 75.9815 75.2886 76.0348 75.4485 76.1413C77.5265 77.3669 79.7111 78.2194 82.0556 78.7522C84.0803 79.285 86.2116 79.5515 88.343 79.5515C90.3677 79.5515 91.8064 79.285 92.7654 78.8055C93.618 78.4325 94.2041 77.5267 94.2041 76.5676C94.2041 75.8216 93.7778 75.129 92.9253 74.4363C92.0728 73.7436 90.3144 72.9444 87.7036 71.932C84.9861 70.9729 82.4818 69.6941 80.1374 68.0956C78.4856 66.9234 77.1003 65.3782 76.0879 63.5666C75.2354 61.8615 74.8091 59.9966 74.8624 58.1317C74.8624 55.8405 75.5018 53.6559 76.674 51.6845C78.0061 49.5532 79.9775 47.8481 82.2687 46.7824C84.773 45.5037 87.9167 44.9175 91.6998 44.9175C93.8844 44.9175 96.1223 45.0774 98.3069 45.3971C99.9054 45.6102 101.451 46.0365 102.889 46.6226C103.102 46.6759 103.315 46.889 103.422 47.1021C103.475 47.3153 103.529 47.5284 103.529 47.7415V56.4267C103.529 56.6398 103.422 56.8529 103.262 56.9595C102.783 57.0661 102.516 57.0661 102.303 56.9595Z" fill="#31A8FF"/>
</svg>
